<svg width="20" height="20" viewBox="0 0 20 20" fill="none" xmlns="http://www.w3.org/2000/svg">
<path d="M5.18772 12.7204L7.99322 9.07503L11.1933 11.5871L13.9389 8.04395" stroke="#AAAAAA" stroke-width="1.5" stroke-linecap="round" stroke-linejoin="round"/>
<path fill-rule="evenodd" clip-rule="evenodd" d="M17.139 1C18.1345 1 18.9406 1.80612 18.9406 2.80159C18.9406 3.79613 18.1345 4.60319 17.139 4.60319C16.1435 4.60319 15.3374 3.79613 15.3374 2.80159C15.3374 1.80612 16.1435 1 17.139 1Z" stroke="#AAAAAA" stroke-width="1.5" stroke-linecap="round" stroke-linejoin="round"/>
<path d="M18.1592 7.48577C18.2839 8.3247 18.341 9.26955 18.341 10.3297C18.341 16.8331 16.1739 19.0002 9.67052 19.0002C3.1681 19.0002 1 16.8331 1 10.3297C1 3.82728 3.1681 1.65918 9.67052 1.65918C10.711 1.65918 11.6399 1.71448 12.4666 1.83446" stroke="#AAAAAA" stroke-width="1.5" stroke-linecap="round" stroke-linejoin="round"/>
</svg>
