<svg width="16" height="19" viewBox="0 0 16 19" fill="none" xmlns="http://www.w3.org/2000/svg">
<path d="M8.11421 5.67182C7.4032 5.67182 6.30259 4.86342 5.14356 4.89264C3.61442 4.91212 2.21189 5.77896 1.42297 7.15226C-0.164615 9.90862 1.0139 13.9798 2.56252 16.22C3.32222 17.3108 4.21828 18.5381 5.40653 18.4991C6.54609 18.4504 6.97465 17.7589 8.3577 17.7589C9.73101 17.7589 10.1206 18.4991 11.3283 18.4699C12.5555 18.4504 13.3347 17.3595 14.0847 16.2589C14.9515 14.9928 15.3119 13.7656 15.3314 13.6974C15.3022 13.6876 12.9451 12.7819 12.9159 10.0547C12.8964 7.77561 14.7762 6.68476 14.8639 6.63606C13.7925 5.06795 12.1465 4.89264 11.5718 4.85368C10.0719 4.7368 8.81547 5.67182 8.11421 5.67182ZM10.6465 3.37323C11.2796 2.61353 11.6984 1.5519 11.5816 0.5C10.6758 0.538959 9.58491 1.10387 8.93235 1.86357C8.34796 2.53561 7.84149 3.61673 7.97785 4.64914C8.98104 4.72706 10.0135 4.13294 10.6465 3.37323Z" fill="#AAAAAA"/>
</svg>
