<svg width="18" height="19" viewBox="0 0 18 19" fill="none" xmlns="http://www.w3.org/2000/svg">
<path d="M1.13727 5.45823C2.61817 2.51683 5.66175 0.5 9.17999 0.5C11.6059 0.5 13.6431 1.39185 15.2018 2.84409L12.6204 5.42547C11.6878 4.53367 10.5013 4.07954 9.17999 4.07954C6.83587 4.07954 4.85175 5.66273 4.14409 7.79C3.96404 8.33 3.86177 8.90681 3.86177 9.5C3.86177 10.0932 3.96404 10.67 4.14409 11.21C4.85175 13.3372 6.83587 14.9204 9.17999 14.9204C10.3909 14.9204 11.4218 14.6014 12.2278 14.0614C13.1809 13.4232 13.815 12.47 14.0236 11.345H9.17999V7.86362H17.6563C17.7628 8.45267 17.82 9.06638 17.82 9.70457C17.82 12.4454 16.8382 14.7527 15.1363 16.3196C13.6472 17.6941 11.61 18.5 9.17999 18.5C5.66175 18.5 2.61817 16.4832 1.13727 13.5418C0.527735 12.3268 0.179993 10.9522 0.179993 9.5C0.179993 8.04776 0.527735 6.6732 1.13727 5.45823Z" fill="#AAAAAA"/>
</svg>
