<svg width="20" height="20" viewBox="0 0 20 20" fill="none" xmlns="http://www.w3.org/2000/svg">
<path d="M12.7 14.5C11.9804 15.0601 11.0352 15.4 10 15.4C8.96478 15.4 8.01957 15.0601 7.3 14.5" stroke="#AAAAAA" stroke-width="1.5" stroke-linecap="round"/>
<path d="M1.31625 11.0921C0.998534 9.02462 0.839675 7.99087 1.23055 7.07444C1.62142 6.15801 2.48862 5.53099 4.22302 4.27696L5.51889 3.34C7.67646 1.78 8.75525 1 10 1C11.2448 1 12.3235 1.78 14.4811 3.34L15.777 4.27696C17.5114 5.53099 18.3786 6.15801 18.7695 7.07444C19.1603 7.99087 19.0015 9.02462 18.6837 11.0921L18.4128 12.8551C17.9624 15.786 17.7372 17.2515 16.6861 18.1257C15.635 19 14.0983 19 11.0249 19H8.97507C5.9017 19 4.36502 19 3.3139 18.1257C2.26278 17.2515 2.03758 15.786 1.58718 12.8551L1.31625 11.0921Z" stroke="#AAAAAA" stroke-width="1.5" stroke-linejoin="round"/>
</svg>
