<svg width="15" height="20" viewBox="0 0 15 20" fill="none" xmlns="http://www.w3.org/2000/svg">
<path fill-rule="evenodd" clip-rule="evenodd" d="M7.20171 19C3.75175 19 0.805573 18.4631 0.805573 16.3131C0.805573 14.163 3.73306 12.1782 7.20171 12.1782C10.6517 12.1782 13.5978 14.1438 13.5978 16.2938C13.5978 18.443 10.6704 19 7.20171 19Z" stroke="#AAAAAA" stroke-width="1.5" stroke-linecap="round" stroke-linejoin="round"/>
<path fill-rule="evenodd" clip-rule="evenodd" d="M7.19493 9.19885C9.45894 9.19885 11.2939 7.36386 11.2939 5.09985C11.2939 2.83584 9.45894 1 7.19493 1C4.93093 1 3.09509 2.83584 3.09509 5.09985C3.08744 7.35621 4.90969 9.1912 7.16605 9.19885C7.17624 9.19885 7.18559 9.19885 7.19493 9.19885Z" stroke="#AAAAAA" stroke-width="1.5" stroke-linecap="round" stroke-linejoin="round"/>
</svg>
