<svg width="19" height="18" viewBox="0 0 19 18" fill="none" xmlns="http://www.w3.org/2000/svg">
<path fill-rule="evenodd" clip-rule="evenodd" d="M4.74687 10.1011C4.71384 10.0078 4.69951 9.90895 4.70471 9.81015C4.70991 9.71135 4.73453 9.61455 4.77718 9.52527C4.81982 9.436 4.87965 9.35601 4.95324 9.28987C5.02682 9.22374 5.11272 9.17276 5.20603 9.13985L5.20904 9.1391L5.21732 9.13609L5.24743 9.12555C5.40793 9.06961 5.56954 9.01691 5.73217 8.96748C6.03326 8.87415 6.43671 8.75823 6.81307 8.68145C7.86912 8.46844 8.65194 8.34424 9.97295 8.34424C11.294 8.34424 12.0768 8.46844 13.1328 8.68221C13.5092 8.75748 13.9134 8.87415 14.2137 8.96748C14.3761 9.01775 14.5377 9.07045 14.6985 9.12555L14.7286 9.13609L14.7369 9.1391L14.7399 9.13985C14.9281 9.20643 15.0822 9.34506 15.1683 9.52526C15.2543 9.70545 15.2652 9.91244 15.1986 10.1007C15.1321 10.2889 14.9934 10.443 14.8132 10.5291C14.6331 10.6151 14.4261 10.626 14.2378 10.5595L14.231 10.5565L14.2062 10.5489C14.0612 10.4979 13.9151 10.45 13.7681 10.4052C13.4611 10.3076 13.1496 10.2247 12.8348 10.1568C11.8412 9.95655 11.1637 9.84966 9.97295 9.84966C8.78216 9.84966 8.10472 9.95655 7.11114 10.1575C6.80855 10.2185 6.46005 10.3178 6.17778 10.4052C6.03105 10.4506 5.885 10.4983 5.7397 10.5482L5.71486 10.5565L5.70884 10.5587C5.61568 10.5918 5.51616 10.6062 5.41743 10.6011C5.3187 10.596 5.22194 10.5715 5.13269 10.529C5.04343 10.4865 4.96341 10.4268 4.89721 10.3534C4.83102 10.28 4.77993 10.1942 4.74687 10.1011Z" fill="#AAAAAA"/>
<path d="M2.44659 11.234C2.43459 11.0394 2.34921 10.8566 2.20769 10.7225C2.06618 10.5884 1.87905 10.513 1.68409 10.5114C1.58295 10.511 1.48278 10.5312 1.38977 10.571C1.29677 10.6107 1.2129 10.6691 1.14334 10.7425C1.07379 10.816 1.02003 10.9029 0.985388 10.9979C0.950743 11.0929 0.935948 11.194 0.941917 11.295C1.26182 16.1086 2.83273 17.6788 7.64557 17.9987C7.74659 18.0047 7.84779 17.99 7.94291 17.9554C8.03802 17.9208 8.12503 17.8671 8.19854 17.7975C8.27206 17.728 8.33052 17.6441 8.37031 17.551C8.41011 17.4579 8.43038 17.3577 8.42989 17.2565C8.42989 16.8523 8.10999 16.5218 7.70729 16.494C6.92673 16.4413 6.26509 16.354 5.70131 16.229C4.68063 16.0025 4.07545 15.6698 3.67351 15.2678C3.27156 14.8659 2.93886 14.2599 2.71229 13.2393C2.58659 12.6755 2.50003 12.0146 2.44659 11.234ZM17.4346 11.234C17.4624 10.8306 17.7929 10.5114 18.1978 10.5114C18.299 10.511 18.3991 10.5312 18.4921 10.571C18.5852 10.6107 18.669 10.6691 18.7386 10.7425C18.8081 10.816 18.8619 10.9029 18.8965 10.9979C18.9312 11.0929 18.946 11.194 18.94 11.295C18.6201 16.1086 17.0492 17.6788 12.2356 17.9987C12.1346 18.0046 12.0335 17.9898 11.9385 17.9552C11.8435 17.9206 11.7566 17.8668 11.6831 17.7972C11.6097 17.7277 11.5513 17.6438 11.5115 17.5508C11.4718 17.4578 11.4515 17.3576 11.452 17.2565C11.452 16.8523 11.7712 16.5218 12.1746 16.494C12.9552 16.4413 13.6161 16.354 14.1799 16.229C15.2005 16.0025 15.8057 15.6698 16.2084 15.2678C16.6104 14.8659 16.9431 14.2599 17.1696 13.2393C17.2953 12.6755 17.3819 12.0146 17.4346 11.234ZM18.94 6.70498C18.9461 6.80601 18.9314 6.90721 18.8968 7.00233C18.8622 7.09744 18.8084 7.18444 18.7389 7.25796C18.6693 7.33147 18.5854 7.38994 18.4923 7.42973C18.3993 7.46952 18.299 7.4898 18.1978 7.48931C17.7929 7.48931 17.4624 7.16941 17.4346 6.76671C17.3819 5.98614 17.2946 5.32451 17.1696 4.76073C16.9431 3.74005 16.6104 3.13487 16.2084 2.73292C15.8065 2.33098 15.2005 1.99828 14.1799 1.77096C13.6161 1.64601 12.9552 1.55945 12.1746 1.506C11.9801 1.49383 11.7974 1.4084 11.6633 1.26692C11.5292 1.12544 11.4537 0.938419 11.452 0.743508C11.4515 0.642366 11.4718 0.542198 11.5115 0.449192C11.5513 0.356185 11.6097 0.272316 11.6831 0.202763C11.7566 0.13321 11.8435 0.0794503 11.9385 0.0448054C12.0335 0.0101605 12.1346 -0.0046344 12.2356 0.00133453C17.0492 0.321237 18.6209 1.89215 18.94 6.70498ZM2.44659 6.76595C2.4346 6.96062 2.34925 7.14351 2.20775 7.27775C2.06625 7.41198 1.87912 7.48758 1.68409 7.48931C1.58288 7.4898 1.48265 7.46952 1.38959 7.42973C1.29653 7.38994 1.21262 7.33147 1.14306 7.25796C1.07349 7.18444 1.01975 7.09744 0.985153 7.00233C0.950556 6.90721 0.935841 6.80601 0.941917 6.70498C1.26182 1.89215 2.83273 0.321237 7.64557 0.00133453C7.74659 -0.00474136 7.84779 0.00997409 7.94291 0.0445708C8.03802 0.0791675 8.12503 0.13291 8.19854 0.202474C8.27206 0.272038 8.33052 0.355944 8.37031 0.449004C8.41011 0.542064 8.43038 0.642299 8.42989 0.743508C8.42989 1.14771 8.10999 1.47891 7.70729 1.506C6.92673 1.55869 6.26509 1.64601 5.70131 1.77096C4.68063 1.99828 4.07545 2.33098 3.67351 2.73292C3.27156 3.13487 2.93886 3.74005 2.71229 4.75998C2.58659 5.32451 2.50003 5.98614 2.44659 6.76595Z" fill="#AAAAAA"/>
</svg>
