<svg width="26" height="9" viewBox="0 0 26 9" fill="none" xmlns="http://www.w3.org/2000/svg">
<path d="M24.0733 8.50306L23.8305 7.30769H21.1067L20.674 8.49414L18.49 8.49881C19.8936 5.19179 20.9351 2.74209 21.6147 1.14968C21.7922 0.73381 22.1078 0.521678 22.5728 0.524918C22.9275 0.527531 23.5074 0.527851 24.3123 0.525917L26 8.49934L24.0733 8.50306ZM21.7192 5.67028H23.475L22.8195 2.67452L21.7192 5.67028ZM7.64908 0.523027L9.84428 0.525821L6.45123 8.50306L4.22898 8.50221C3.47764 5.65731 2.92591 3.5481 2.57379 2.17449C2.46584 1.75335 2.25112 1.45925 1.83844 1.32017C1.47047 1.19615 0.857657 1.00438 0 0.74488V0.525917C1.60358 0.525726 2.77248 0.525726 3.50669 0.525917C4.11385 0.526098 4.46779 0.81353 4.58166 1.40368C4.69596 1.99631 4.98471 3.50285 5.44791 5.92312L7.64908 0.523027ZM12.8594 0.525832L11.1253 8.50232L9.03617 8.49934C9.0774 8.30557 9.65469 5.6468 10.768 0.523027L12.8594 0.525832ZM17.0966 0.37793C17.721 0.37793 18.5083 0.568178 18.9621 0.74488L18.5956 2.39852C18.186 2.23718 17.5128 2.01906 16.9459 2.02759C16.1214 2.03999 15.6127 2.37929 15.6127 2.70491C15.6127 3.23343 16.4967 3.49966 17.4071 4.07801C18.4454 4.73742 18.5825 5.32841 18.5696 5.97177C18.555 7.30578 17.4071 8.62184 14.9849 8.62184C13.8787 8.60558 13.4814 8.51454 12.5799 8.20093L12.9607 6.47523C13.8782 6.85205 14.2673 6.97188 15.0513 6.97188C15.77 6.97188 16.3868 6.68706 16.3921 6.19094C16.3959 5.83813 16.1759 5.66358 15.3694 5.22716C14.5629 4.79075 13.4327 4.18743 13.4472 2.97326C13.4658 1.4197 14.9663 0.37793 17.0966 0.37793Z" fill="#F45D2D"/>
</svg>
